<svg width="41" height="53" viewBox="0 0 41 53" fill="none" xmlns="http://www.w3.org/2000/svg">
<path d="M38.1074 12.5315C38.0628 12.0033 37.6179 11.5986 37.0878 11.6038H29.3383V8.6671C29.3383 3.88028 25.4577 0 20.6712 0C15.8844 0 12.0041 3.88028 12.0041 8.6671V11.6038H4.25474C3.72699 11.6058 3.28646 12.0065 3.23508 12.5315L0.563654 43.2439C0.442171 44.6678 0.923323 46.0778 1.8908 47.1306C2.85789 48.1829 4.22208 48.7815 5.65159 48.7803H35.7009C37.1304 48.7815 38.4946 48.1829 39.4616 47.1306C40.4291 46.0778 40.9107 44.6678 40.7892 43.2439L38.1074 12.5315ZM14.0435 8.6671C14.0435 5.00669 17.0108 2.03932 20.6712 2.03932C24.3317 2.03932 27.299 5.00669 27.299 8.6671V11.6038H14.0435V8.6671ZM37.9545 45.752C37.3777 46.3869 36.5584 46.7466 35.7009 46.741H5.64124C4.78369 46.7414 3.96557 46.3817 3.38564 45.75C2.80611 45.1179 2.51813 44.2715 2.59262 43.4172L5.18239 13.6431H12.0041V20.0056C10.3643 20.5103 9.34029 22.1382 9.5956 23.8349C9.85052 25.5313 11.3083 26.786 13.0238 26.786C14.7393 26.786 16.1967 25.5313 16.452 23.8349C16.7069 22.1382 15.6829 20.5103 14.0435 20.0056V13.6328H27.299V20.0056C25.6592 20.5103 24.6352 22.1382 24.8905 23.8349C25.1454 25.5313 26.6032 26.786 28.3187 26.786C30.0342 26.786 31.4916 25.5313 31.7469 23.8349C32.0018 22.1382 30.9778 20.5103 29.3383 20.0056V13.6328H36.1497L38.7395 43.4068C38.8232 44.2648 38.5376 45.1175 37.9545 45.752ZM12.8709 21.9024C12.9724 21.9159 13.0752 21.9159 13.1768 21.9024C13.9307 21.9836 14.49 22.6408 14.4493 23.398C14.4083 24.1556 13.7822 24.749 13.0238 24.749C12.265 24.749 11.6389 24.1556 11.5983 23.398C11.5576 22.6408 12.1165 21.9836 12.8709 21.9024ZM28.1657 21.9024C28.2673 21.9159 28.3701 21.9159 28.4716 21.9024C29.2256 21.9836 29.7848 22.6408 29.7442 23.398C29.7032 24.1556 29.0771 24.749 28.3187 24.749C27.5599 24.749 26.9338 24.1556 26.8932 23.398C26.8525 22.6408 27.4114 21.9836 28.1657 21.9024Z" fill="black"/>
<path d="M25.594 39.616C25.594 40.24 25.444 40.822 25.144 41.362C24.844 41.89 24.388 42.316 23.776 42.64C23.164 42.964 22.414 43.126 21.526 43.126C20.662 43.126 19.888 42.976 19.204 42.676C18.52 42.364 17.974 41.932 17.566 41.38C17.158 40.828 16.924 40.192 16.864 39.472H19.06C19.12 40.024 19.354 40.498 19.762 40.894C20.182 41.29 20.74 41.488 21.436 41.488C22.06 41.488 22.54 41.32 22.876 40.984C23.224 40.648 23.398 40.216 23.398 39.688C23.398 39.232 23.272 38.86 23.02 38.572C22.768 38.272 22.456 38.038 22.084 37.87C21.712 37.702 21.202 37.51 20.554 37.294C19.762 37.042 19.114 36.79 18.61 36.538C18.118 36.286 17.698 35.92 17.35 35.44C17.002 34.96 16.828 34.33 16.828 33.55C16.828 32.866 16.996 32.266 17.332 31.75C17.668 31.234 18.148 30.838 18.772 30.562C19.396 30.274 20.116 30.13 20.932 30.13C22.228 30.13 23.254 30.442 24.01 31.066C24.778 31.69 25.216 32.506 25.324 33.514H23.11C23.026 33.034 22.798 32.626 22.426 32.29C22.066 31.942 21.568 31.768 20.932 31.768C20.356 31.768 19.894 31.918 19.546 32.218C19.198 32.506 19.024 32.926 19.024 33.478C19.024 33.91 19.144 34.27 19.384 34.558C19.624 34.834 19.924 35.056 20.284 35.224C20.656 35.38 21.16 35.566 21.796 35.782C22.6 36.034 23.254 36.292 23.758 36.556C24.274 36.808 24.706 37.18 25.054 37.672C25.414 38.164 25.594 38.812 25.594 39.616Z" fill="#29A867"/>
</svg>
