<svg width="10" height="14" viewBox="0 0 10 14" fill="none" xmlns="http://www.w3.org/2000/svg">
<path d="M9.594 9.616C9.594 10.24 9.444 10.822 9.144 11.362C8.844 11.89 8.388 12.316 7.776 12.64C7.164 12.964 6.414 13.126 5.526 13.126C4.662 13.126 3.888 12.976 3.204 12.676C2.52 12.364 1.974 11.932 1.566 11.38C1.158 10.828 0.924 10.192 0.864 9.472H3.06C3.12 10.024 3.354 10.498 3.762 10.894C4.182 11.29 4.74 11.488 5.436 11.488C6.06 11.488 6.54 11.32 6.876 10.984C7.224 10.648 7.398 10.216 7.398 9.688C7.398 9.232 7.272 8.86 7.02 8.572C6.768 8.272 6.456 8.038 6.084 7.87C5.712 7.702 5.202 7.51 4.554 7.294C3.762 7.042 3.114 6.79 2.61 6.538C2.118 6.286 1.698 5.92 1.35 5.44C1.002 4.96 0.828 4.33 0.828 3.55C0.828 2.866 0.996 2.266 1.332 1.75C1.668 1.234 2.148 0.837999 2.772 0.561999C3.396 0.273999 4.116 0.129999 4.932 0.129999C6.228 0.129999 7.254 0.441999 8.01 1.066C8.778 1.69 9.216 2.506 9.324 3.514H7.11C7.026 3.034 6.798 2.626 6.426 2.29C6.066 1.942 5.568 1.768 4.932 1.768C4.356 1.768 3.894 1.918 3.546 2.218C3.198 2.506 3.024 2.926 3.024 3.478C3.024 3.91 3.144 4.27 3.384 4.558C3.624 4.834 3.924 5.056 4.284 5.224C4.656 5.38 5.16 5.566 5.796 5.782C6.6 6.034 7.254 6.292 7.758 6.556C8.274 6.808 8.706 7.18 9.054 7.672C9.414 8.164 9.594 8.812 9.594 9.616Z" fill="#29A867"/>
</svg>
